<svg width="26" height="27" viewBox="0 0 26 27" fill="none" xmlns="http://www.w3.org/2000/svg">
<g id="Iconly/Light-Outline/Home">
<g id="Home">
<path id="Fill-1" fill-rule="evenodd" clip-rule="evenodd" d="M14.6945 17.8294C16.134 17.8294 17.3057 18.9927 17.3057 20.4227V24.1003C17.3057 24.4076 17.552 24.6539 17.8676 24.661H20.1464C21.9422 24.661 23.402 23.2192 23.402 21.4473V11.0169C23.3937 10.4072 23.1031 9.83327 22.6046 9.45188L14.722 3.16543C13.6639 2.32732 12.1838 2.32732 11.1221 3.16783L3.29331 9.44948C2.77562 9.84284 2.48509 10.4167 2.47911 11.0372V21.4473C2.47911 23.2192 3.93893 24.661 5.73471 24.661H8.03504C8.35905 24.661 8.62208 24.404 8.62208 24.0884C8.62208 24.019 8.63045 23.9497 8.64479 23.8839V20.4227C8.64479 19.0011 9.80931 17.839 11.238 17.8294H14.6945ZM20.1464 26.4544H17.8461C16.5286 26.4234 15.5123 25.3892 15.5123 24.1003V20.4227C15.5123 19.9815 15.1452 19.6228 14.6945 19.6228H11.244C10.8028 19.6252 10.4382 19.9851 10.4382 20.4227V24.0884C10.4382 24.178 10.4262 24.2641 10.4011 24.3454C10.272 25.529 9.26053 26.4544 8.03504 26.4544H5.73471C2.95017 26.4544 0.685715 24.2079 0.685715 21.4473V11.0289C0.697671 9.84044 1.24525 8.75245 2.19097 8.03629L10.0042 1.76539C11.7246 0.402413 14.1218 0.402413 15.8387 1.763L23.7081 8.03988C24.6323 8.74408 25.1799 9.82968 25.1954 11.0038V21.4473C25.1954 24.2079 22.931 26.4544 20.1464 26.4544Z" fill="#6A6A6A"/>
</g>
</g>
</svg>
