<svg width="35" height="35" viewBox="0 0 35 35" fill="none" xmlns="http://www.w3.org/2000/svg">
<g id="shopping-bag-svgrepo-com 1">
<path id="Vector" fill-rule="evenodd" clip-rule="evenodd" d="M23.79 8.95714C23.7638 8.84377 23.7365 8.73016 23.708 8.61643C23.3371 7.13288 22.7532 5.52085 21.8009 4.25118C20.819 2.94197 19.3853 1.93333 17.4286 1.93333C15.4719 1.93333 14.0382 2.94197 13.0562 4.25118C12.104 5.52085 11.52 7.13288 11.1491 8.61644C11.1206 8.73016 11.0933 8.84377 11.067 8.95714H8.81893C6.60026 8.95714 4.76157 10.6773 4.61399 12.8911L3.58382 28.3434C3.42167 30.7759 5.35097 32.8381 7.78878 32.8381H27.0683C29.5062 32.8381 31.4355 30.7759 31.2733 28.3434L30.2431 12.8911C30.0956 10.6773 28.2569 8.95714 26.0382 8.95714H23.79ZM11.8095 15.9809C12.6144 15.9809 13.2116 15.3747 13.2143 14.5736C13.2145 14.5402 13.2149 14.5068 13.2155 14.4734C13.2167 14.3994 13.2192 14.2876 13.2244 14.1434C13.2347 13.8549 13.2554 13.4383 13.2972 12.9369C13.3269 12.5811 13.3668 12.1862 13.4204 11.7667H21.4368C21.4903 12.1862 21.5302 12.5811 21.56 12.9369C21.6017 13.4383 21.6225 13.8549 21.6327 14.1434C21.6379 14.2876 21.6405 14.3994 21.6417 14.4734C21.6423 14.5078 21.6427 14.5423 21.6429 14.5767C21.6429 14.5767 21.6429 15.9809 23.0476 15.9809C24.4524 15.9809 24.4524 14.5743 24.4524 14.5743C24.4522 14.5251 24.4517 14.4758 24.4508 14.4266C24.4493 14.336 24.4463 14.2063 24.4404 14.0432C24.4289 13.7171 24.4057 13.2557 24.3597 12.7036C24.3358 12.4157 24.3053 12.1012 24.2668 11.7667H26.0382C26.7778 11.7667 27.3907 12.3401 27.4399 13.078L28.47 28.5304C28.5241 29.3412 27.881 30.0286 27.0683 30.0286H7.78878C6.97618 30.0286 6.33308 29.3412 6.38712 28.5304L7.41729 13.078C7.46648 12.3401 8.07938 11.7667 8.81893 11.7667H10.5903C10.5518 12.1012 10.5214 12.4157 10.4974 12.7036C10.4514 13.2557 10.4283 13.7171 10.4166 14.0432C10.4108 14.2063 10.4078 14.336 10.4063 14.4266C10.4055 14.4748 10.4049 14.5231 10.4048 14.5714C10.4037 15.373 11.0065 15.9809 11.8095 15.9809ZM13.9638 8.95714H20.8934C20.5686 7.76761 20.1271 6.70202 19.5533 5.9369C18.9548 5.13897 18.2814 4.74285 17.4286 4.74285C16.5757 4.74285 15.9023 5.13897 15.3039 5.9369C14.73 6.70202 14.2885 7.76761 13.9638 8.95714Z" fill="#6A6A6A"/>
</g>
</svg>
